G04*
G04 #@! TF.GenerationSoftware,Altium Limited,Altium Designer,22.2.1 (43)*
G04*
G04 Layer_Color=16711935*
%FSLAX23Y23*%
%MOIN*%
G70*
G04*
G04 #@! TF.SameCoordinates,4A317E20-D035-40B8-9544-2A4E967EB8EC*
G04*
G04*
G04 #@! TF.FilePolarity,Negative*
G04*
G01*
G75*
%ADD16C,0.061*%
%ADD17R,0.061X0.061*%
%ADD18C,0.063*%
%ADD19C,0.059*%
%ADD20C,0.079*%
%ADD21C,0.085*%
%ADD22C,0.071*%
%ADD23R,0.071X0.071*%
%ADD24R,0.067X0.067*%
%ADD25C,0.067*%
%ADD26R,0.052X0.052*%
%ADD27C,0.052*%
%ADD28C,0.068*%
%ADD29R,0.071X0.071*%
%ADD30C,0.059*%
%ADD31C,0.058*%
D16*
X670Y-95D02*
D03*
D17*
X320D02*
D03*
D18*
X65Y490D02*
D03*
Y790D02*
D03*
X-180Y-40D02*
D03*
X120D02*
D03*
X555Y590D02*
D03*
X255D02*
D03*
X395Y385D02*
D03*
X95D02*
D03*
D19*
X626Y990D02*
D03*
X154D02*
D03*
D20*
Y1470D02*
D03*
X626D02*
D03*
D21*
X395Y911D02*
D03*
D22*
X-505Y1200D02*
D03*
X-405D02*
D03*
X-380Y1520D02*
D03*
X-140Y185D02*
D03*
Y285D02*
D03*
Y385D02*
D03*
X-415Y875D02*
D03*
X-315D02*
D03*
D23*
X-183Y1520D02*
D03*
D24*
X-135Y-185D02*
D03*
D25*
X-235D02*
D03*
X-335D02*
D03*
X-435D02*
D03*
X-135Y-485D02*
D03*
X-235D02*
D03*
X-335D02*
D03*
X-435D02*
D03*
D26*
X-170Y1110D02*
D03*
D27*
X-120Y1060D02*
D03*
X-70Y1110D02*
D03*
D28*
X-455Y145D02*
D03*
Y345D02*
D03*
Y545D02*
D03*
D29*
X-140Y85D02*
D03*
D30*
X-165Y505D02*
D03*
Y605D02*
D03*
D31*
X75Y-275D02*
D03*
X160Y-110D02*
D03*
M02*
