M48
;Layer_Color=9474304
;FILE_FORMAT=2:3
INCH,LZ
;TYPE=PLATED
T1F00S00C0.028
T2F00S00C0.029
T3F00S00C0.030
T4F00S00C0.031
T5F00S00C0.033
T6F00S00C0.035
T7F00S00C0.039
T8F00S00C0.043
T9F00S00C0.047
T10F00S00C0.051
%
T01
X00075Y-00275
X0016Y-0011
T02
X-0017Y0111
X-0012Y0106
X-0007Y0111
T03
X-00455Y00145
Y00345
Y00545
T04
X-00165Y00505
X00626Y0099
X00154
X-00165Y00605
T05
X-0018Y-0004
X0012
X00095Y00385
X00065Y0049
X00395Y00385
X00255Y0059
X00555
X00065Y0079
T06
X-00435Y-00485
X-00335
X-00235
X-00135
Y-00185
X-00235
X-00335
X-00435
T07
X0032Y-00095
X0067
X-00315Y00875
X-00415
X-00405Y012
X-00505
T08
X-0014Y00085
Y00185
Y00285
Y00385
X-00183Y0152
X-0038
T09
X00626Y0147
X00154
T10
X00395Y00911
M30
