G04*
G04 #@! TF.GenerationSoftware,Altium Limited,Altium Designer,22.2.1 (43)*
G04*
G04 Layer_Physical_Order=1*
G04 Layer_Color=255*
%FSLAX23Y23*%
%MOIN*%
G70*
G04*
G04 #@! TF.SameCoordinates,4A317E20-D035-40B8-9544-2A4E967EB8EC*
G04*
G04*
G04 #@! TF.FilePolarity,Positive*
G04*
G01*
G75*
%ADD12C,0.024*%
%ADD16C,0.061*%
%ADD17R,0.061X0.061*%
%ADD32C,0.055*%
%ADD33C,0.051*%
%ADD34C,0.071*%
%ADD35C,0.077*%
%ADD36C,0.063*%
%ADD37R,0.063X0.063*%
%ADD38R,0.059X0.059*%
%ADD39C,0.059*%
%ADD40R,0.044X0.044*%
%ADD41C,0.044*%
%ADD42C,0.060*%
%ADD43R,0.063X0.063*%
%ADD44C,0.051*%
%ADD45C,0.050*%
D12*
X75Y-275D02*
X160Y-190D01*
Y-110D01*
D16*
X670Y-95D02*
D03*
D17*
X320D02*
D03*
D32*
X65Y490D02*
D03*
Y790D02*
D03*
X-180Y-40D02*
D03*
X120D02*
D03*
X555Y590D02*
D03*
X255D02*
D03*
X395Y385D02*
D03*
X95D02*
D03*
D33*
X626Y990D02*
D03*
X154D02*
D03*
D34*
Y1470D02*
D03*
X626D02*
D03*
D35*
X395Y911D02*
D03*
D36*
X-505Y1200D02*
D03*
X-405D02*
D03*
X-380Y1520D02*
D03*
X-140Y185D02*
D03*
Y285D02*
D03*
Y385D02*
D03*
X-415Y875D02*
D03*
X-315D02*
D03*
D37*
X-183Y1520D02*
D03*
D38*
X-135Y-185D02*
D03*
D39*
X-235D02*
D03*
X-335D02*
D03*
X-435D02*
D03*
X-135Y-485D02*
D03*
X-235D02*
D03*
X-335D02*
D03*
X-435D02*
D03*
D40*
X-170Y1110D02*
D03*
D41*
X-120Y1060D02*
D03*
X-70Y1110D02*
D03*
D42*
X-455Y145D02*
D03*
Y345D02*
D03*
Y545D02*
D03*
D43*
X-140Y85D02*
D03*
D44*
X-165Y505D02*
D03*
Y605D02*
D03*
D45*
X75Y-275D02*
D03*
X160Y-110D02*
D03*
M02*
