G04*
G04 #@! TF.GenerationSoftware,Altium Limited,Altium Designer,22.2.1 (43)*
G04*
G04 Layer_Physical_Order=2*
G04 Layer_Color=16711680*
%FSLAX23Y23*%
%MOIN*%
G70*
G04*
G04 #@! TF.SameCoordinates,4A317E20-D035-40B8-9544-2A4E967EB8EC*
G04*
G04*
G04 #@! TF.FilePolarity,Positive*
G04*
G01*
G75*
%ADD12C,0.024*%
%ADD16C,0.061*%
%ADD17R,0.061X0.061*%
%ADD32C,0.055*%
%ADD33C,0.051*%
%ADD34C,0.071*%
%ADD35C,0.077*%
%ADD36C,0.063*%
%ADD37R,0.063X0.063*%
%ADD38R,0.059X0.059*%
%ADD39C,0.059*%
%ADD40R,0.044X0.044*%
%ADD41C,0.044*%
%ADD42C,0.060*%
%ADD43R,0.063X0.063*%
%ADD44C,0.051*%
%ADD45C,0.050*%
D12*
X-135Y-485D02*
X75Y-275D01*
X305Y-110D02*
X320Y-95D01*
X160Y-110D02*
X305D01*
X250Y-265D02*
X480D01*
X-135Y-485D02*
X30D01*
X250Y-265D01*
X-235Y-385D02*
X-135Y-485D01*
X-455Y-75D02*
Y145D01*
X-495Y-385D02*
X-235D01*
X-555Y-325D02*
Y-175D01*
Y-325D02*
X-495Y-385D01*
X-555Y-175D02*
X-455Y-75D01*
X-435Y-185D02*
X-375Y-125D01*
X-374D01*
X-550Y230D02*
Y450D01*
X-335Y-185D02*
Y225D01*
X-455Y345D02*
X-335Y225D01*
X-374Y-125D02*
Y146D01*
X-459Y230D02*
X-374Y146D01*
X-550Y230D02*
X-459D01*
X85Y85D02*
X120Y50D01*
Y-40D02*
Y50D01*
Y-40D02*
X265D01*
X320Y-95D01*
X-235Y-45D02*
Y159D01*
Y-110D02*
Y-45D01*
X-185D01*
X-180Y-40D01*
X257Y117D02*
X262D01*
X90Y285D02*
X257Y117D01*
X262D02*
X415Y-35D01*
X401Y-185D02*
X415Y-171D01*
X-135Y-185D02*
X401D01*
X415Y-171D02*
Y-35D01*
X-314Y1391D02*
X-170Y1247D01*
Y1110D02*
Y1247D01*
X-550Y450D02*
X-455Y545D01*
X-75Y461D02*
Y560D01*
X-395Y605D02*
X-120D01*
X-75Y560D01*
X-140Y396D02*
X-75Y461D01*
X-20Y415D02*
X10Y385D01*
X-20Y415D02*
Y595D01*
X-175Y750D02*
X-20Y595D01*
X170Y335D02*
Y425D01*
X66Y489D02*
X106D01*
X65Y490D02*
X66Y489D01*
X106D02*
X170Y425D01*
X105Y270D02*
X170Y335D01*
X480Y-265D02*
X715D01*
X796Y-184D02*
Y1479D01*
X715Y-265D02*
X796Y-184D01*
X-235Y-185D02*
Y-110D01*
Y159D02*
X-231Y155D01*
X-245Y169D02*
X-235Y159D01*
X-230Y505D02*
X-165D01*
X-245Y169D02*
Y490D01*
X-230Y505D01*
X-140Y85D02*
X85D01*
X-181Y155D02*
X-151Y185D01*
X-415Y764D02*
Y875D01*
X-401Y750D02*
X-175D01*
X-415Y764D02*
X-401Y750D01*
X578Y941D02*
X626Y990D01*
X245Y795D02*
X431D01*
X-74Y1114D02*
X245Y795D01*
X431D02*
X578Y941D01*
X710Y-170D02*
X730Y-150D01*
X626Y1470D02*
X730Y1366D01*
Y-150D02*
Y1366D01*
X395Y385D02*
X480Y300D01*
Y-265D02*
Y300D01*
X10Y385D02*
X95D01*
X-405Y1110D02*
Y1200D01*
Y1110D02*
X109Y596D01*
X249D01*
X-120Y1060D02*
X-116Y1056D01*
Y1036D02*
X65Y855D01*
Y790D02*
Y855D01*
X-116Y1036D02*
Y1056D01*
X-41Y1520D02*
X395Y1085D01*
X-183Y1520D02*
X-41D01*
X395Y911D02*
Y1085D01*
X670Y1605D02*
X715Y1560D01*
X715D01*
X-98Y1605D02*
X670D01*
X-183Y1520D02*
X-98Y1605D01*
X316Y990D02*
X389Y917D01*
X715Y1560D02*
X796Y1479D01*
X625Y-170D02*
X710D01*
X555Y-100D02*
X625Y-170D01*
X555Y-100D02*
Y590D01*
X-231Y155D02*
X-181D01*
X-151Y185D02*
X-140D01*
X670Y-95D02*
Y946D01*
X626Y990D02*
X670Y946D01*
X626Y990D02*
Y1000D01*
Y990D02*
Y1000D01*
X-455Y545D02*
X-395Y605D01*
X154Y990D02*
X316D01*
X249Y596D02*
X255Y590D01*
X-314Y1391D02*
Y1454D01*
X-380Y1520D02*
X-314Y1454D01*
X-505Y1200D02*
X-314Y1391D01*
X-140Y385D02*
Y396D01*
Y285D02*
X90D01*
X-505Y595D02*
Y1065D01*
Y595D02*
X-455Y545D01*
X-505Y1065D02*
Y1200D01*
Y1065D02*
X-315Y875D01*
D16*
X670Y-95D02*
D03*
D17*
X320D02*
D03*
D32*
X65Y490D02*
D03*
Y790D02*
D03*
X-180Y-40D02*
D03*
X120D02*
D03*
X555Y590D02*
D03*
X255D02*
D03*
X395Y385D02*
D03*
X95D02*
D03*
D33*
X626Y990D02*
D03*
X154D02*
D03*
D34*
Y1470D02*
D03*
X626D02*
D03*
D35*
X395Y911D02*
D03*
D36*
X-505Y1200D02*
D03*
X-405D02*
D03*
X-380Y1520D02*
D03*
X-140Y185D02*
D03*
Y285D02*
D03*
Y385D02*
D03*
X-415Y875D02*
D03*
X-315D02*
D03*
D37*
X-183Y1520D02*
D03*
D38*
X-135Y-185D02*
D03*
D39*
X-235D02*
D03*
X-335D02*
D03*
X-435D02*
D03*
X-135Y-485D02*
D03*
X-235D02*
D03*
X-335D02*
D03*
X-435D02*
D03*
D40*
X-170Y1110D02*
D03*
D41*
X-120Y1060D02*
D03*
X-70Y1110D02*
D03*
D42*
X-455Y145D02*
D03*
Y345D02*
D03*
Y545D02*
D03*
D43*
X-140Y85D02*
D03*
D44*
X-165Y505D02*
D03*
Y605D02*
D03*
D45*
X75Y-275D02*
D03*
X160Y-110D02*
D03*
M02*
